<mxfile host="Electron" modified="2024-04-08T09:44:26.724Z" agent="Mozilla/5.0 (X11; Linux x86_64) AppleWebKit/537.36 (KHTML, like Gecko) draw.io/21.6.5 Chrome/114.0.5735.289 Electron/25.9.8 Safari/537.36" etag="MVACG8Eoj8HFb2mWhY1S" version="21.6.5" type="device">
  <diagram name="Page-1" id="RgarW6Yyou3NY5edRj-V">
    <mxGraphModel dx="2225" dy="1162" grid="1" gridSize="10" guides="1" tooltips="1" connect="1" arrows="1" fold="1" page="1" pageScale="1" pageWidth="180" pageHeight="50" math="0" shadow="0">
      <root>
        <mxCell id="0" />
        <mxCell id="1" parent="0" />
        <object placeholders="1" c4Name="PMCCabe Service" c4Type="SystemScopeBoundary" c4Application="&quot;Microservices&quot;" label="&lt;font style=&quot;font-size: 16px&quot;&gt;&lt;b&gt;&lt;div style=&quot;text-align: left&quot;&gt;%c4Name%&lt;/div&gt;&lt;/b&gt;&lt;/font&gt;&lt;div style=&quot;text-align: left&quot;&gt;[%c4Application%]&lt;/div&gt;" id="JEX36WftkP2Sz6JWhwrl-7">
          <mxCell style="rounded=0;fontSize=11;whiteSpace=wrap;html=1;arcSize=20;labelBackgroundColor=none;align=left;verticalAlign=top;labelBorderColor=none;spacingTop=0;spacing=10;metaEdit=1;rotatable=0;perimeter=rectanglePerimeter;noLabel=0;labelPadding=0;allowArrows=0;connectable=0;expand=0;recursiveResize=0;editable=1;pointerEvents=0;absoluteArcSize=1;points=[[0.25,0,0],[0.5,0,0],[0.75,0,0],[1,0.25,0],[1,0.5,0],[1,0.75,0],[0.75,1,0],[0.5,1,0],[0.25,1,0],[0,0.75,0],[0,0.5,0],[0,0.25,0]];fillColor=#d5e8d4;strokeColor=#82b366;dashed=1;glass=0;sketch=1;curveFitting=1;jiggle=2;shadow=0;" vertex="1" parent="1">
            <mxGeometry x="220" y="-140" width="360" height="860" as="geometry" />
          </mxCell>
        </object>
        <object placeholders="1" c4Name="Cyclomatic Complexity (CC)" c4Type="Container" c4Technology="Set of Python utils providing pseudo filesystem based API" c4Description="Evaluates CC metric of components comprised by a single project" label="&lt;font style=&quot;font-size: 16px&quot;&gt;&lt;b&gt;%c4Name%&lt;/b&gt;&lt;/font&gt;&lt;div&gt;[%c4Type%: %c4Technology%]&lt;/div&gt;&lt;br&gt;&lt;div&gt;&lt;font style=&quot;font-size: 11px&quot;&gt;&lt;font&gt;%c4Description%&lt;/font&gt;&lt;/font&gt;&lt;/div&gt;" id="0PpJ5zKY2ymD8HXdoyNr-2">
          <mxCell style="rounded=1;whiteSpace=wrap;html=1;fontSize=11;labelBackgroundColor=none;fillColor=#dae8fc;align=center;arcSize=10;strokeColor=#6c8ebf;metaEdit=1;resizable=0;points=[[0.25,0,0],[0.5,0,0],[0.75,0,0],[1,0.25,0],[1,0.5,0],[1,0.75,0],[0.75,1,0],[0.5,1,0],[0.25,1,0],[0,0.75,0],[0,0.5,0],[0,0.25,0]];" parent="1" vertex="1">
            <mxGeometry x="250" y="30" width="240" height="120" as="geometry" />
          </mxCell>
        </object>
        <object placeholders="1" c4Name="RRD analytic" c4Type="Container" c4Technology="RRDTool, Python, ImageMagick" c4Description="The RRDTool and Python utils accumulating measured code metrics into DBs" label="&lt;font style=&quot;font-size: 16px&quot;&gt;&lt;b&gt;%c4Name%&lt;/b&gt;&lt;/font&gt;&lt;div&gt;[%c4Type%: %c4Technology%]&lt;/div&gt;&lt;br&gt;&lt;div&gt;&lt;font style=&quot;font-size: 11px&quot;&gt;&lt;font&gt;%c4Description%&lt;/font&gt;&lt;/font&gt;&lt;/div&gt;" id="0PpJ5zKY2ymD8HXdoyNr-3">
          <mxCell style="rounded=1;whiteSpace=wrap;html=1;fontSize=11;labelBackgroundColor=none;fillColor=#fff2cc;align=center;arcSize=10;strokeColor=#d6b656;metaEdit=1;resizable=0;points=[[0.25,0,0],[0.5,0,0],[0.75,0,0],[1,0.25,0],[1,0.5,0],[1,0.75,0],[0.75,1,0],[0.5,1,0],[0.25,1,0],[0,0.75,0],[0,0.5,0],[0,0.25,0]];labelBorderColor=none;fontColor=#000000;" parent="1" vertex="1">
            <mxGeometry x="250" y="280" width="240" height="120" as="geometry" />
          </mxCell>
        </object>
        <object placeholders="1" c4Type="REST API" c4Container="Container" c4Technology="Python, Flask" c4Description="Collects and represents pseudo filesystem API of several services as a convenient REST API" label="&lt;font style=&quot;font-size: 16px&quot;&gt;&lt;b&gt;%c4Type%&lt;/b&gt;&lt;/font&gt;&lt;div&gt;[%c4Container%:&amp;nbsp;%c4Technology%]&lt;/div&gt;&lt;br&gt;&lt;div&gt;&lt;font style=&quot;font-size: 11px&quot;&gt;&lt;font&gt;%c4Description%&lt;/font&gt;&lt;/font&gt;&lt;/div&gt;" id="0PpJ5zKY2ymD8HXdoyNr-4">
          <mxCell style="shape=mxgraph.c4.webBrowserContainer2;whiteSpace=wrap;html=1;boundedLbl=1;rounded=0;labelBackgroundColor=none;strokeColor=#82b366;fillColor=#d5e8d4;strokeColor=#118ACD;strokeColor2=#0E7DAD;fontSize=12;align=center;metaEdit=1;points=[[0.5,0,0],[1,0.25,0],[1,0.5,0],[1,0.75,0],[0.5,1,0],[0,0.75,0],[0,0.5,0],[0,0.25,0]];resizable=0;" parent="1" vertex="1">
            <mxGeometry x="270" y="525" width="240" height="160" as="geometry" />
          </mxCell>
        </object>
        <object placeholders="1" c4Name="Analysis Actor" c4Type="Person" c4Description="Actor, who&#39;s conducting metrics analysis" label="&lt;font style=&quot;font-size: 16px&quot;&gt;&lt;b&gt;%c4Name%&lt;/b&gt;&lt;/font&gt;&lt;div&gt;[%c4Type%]&lt;/div&gt;&lt;br&gt;&lt;div&gt;&lt;font style=&quot;font-size: 11px&quot;&gt;&lt;font color=&quot;#cccccc&quot;&gt;%c4Description%&lt;/font&gt;&lt;/div&gt;" id="0PpJ5zKY2ymD8HXdoyNr-5">
          <mxCell style="html=1;fontSize=11;dashed=0;whiteSpace=wrap;fillColor=#083F75;strokeColor=#06315C;fontColor=#ffffff;shape=mxgraph.c4.person2;align=center;metaEdit=1;points=[[0.5,0,0],[1,0.5,0],[1,0.75,0],[0.75,1,0],[0.5,1,0],[0.25,1,0],[0,0.75,0],[0,0.5,0]];resizable=0;" parent="1" vertex="1">
            <mxGeometry x="-520" y="280" width="200" height="180" as="geometry" />
          </mxCell>
        </object>
        <mxCell id="0PpJ5zKY2ymD8HXdoyNr-19" value="Volume: " style="shape=table;startSize=30;container=1;collapsible=0;childLayout=tableLayout;fontSize=16;align=left;verticalAlign=top;fontStyle=1;spacingLeft=6;spacing=0;resizable=0;strokeWidth=2;perimeterSpacing=0;rounded=0;shadow=1;gradientColor=none;fillStyle=auto;strokeColor=#000000;" parent="1" vertex="1">
          <mxGeometry x="-80" y="62" width="200" height="326" as="geometry" />
        </mxCell>
        <mxCell id="0PpJ5zKY2ymD8HXdoyNr-20" value="" style="shape=tableRow;horizontal=0;startSize=0;swimlaneHead=0;swimlaneBody=0;strokeColor=inherit;top=0;left=0;bottom=0;right=0;collapsible=0;dropTarget=0;fillColor=none;points=[[0,0.5],[1,0.5]];portConstraint=eastwest;fontSize=12;" parent="0PpJ5zKY2ymD8HXdoyNr-19" vertex="1">
          <mxGeometry y="30" width="200" height="36" as="geometry" />
        </mxCell>
        <mxCell id="0PpJ5zKY2ymD8HXdoyNr-21" value="api.pmccabe_collector.restapi.org&lt;br&gt;&amp;lt;local host path&amp;gt;" style="shape=partialRectangle;html=1;whiteSpace=wrap;connectable=0;overflow=hidden;top=0;left=0;bottom=0;right=0;pointerEvents=1;fontSize=12;align=left;spacingLeft=10;spacingRight=4;" parent="0PpJ5zKY2ymD8HXdoyNr-20" vertex="1">
          <mxGeometry width="200" height="36" as="geometry">
            <mxRectangle width="200" height="36" as="alternateBounds" />
          </mxGeometry>
        </mxCell>
        <mxCell id="0PpJ5zKY2ymD8HXdoyNr-26" value="" style="shape=tableRow;horizontal=0;startSize=0;swimlaneHead=0;swimlaneBody=0;strokeColor=inherit;top=0;left=0;bottom=0;right=0;collapsible=0;dropTarget=0;fillColor=none;points=[[0,0.5],[1,0.5]];portConstraint=eastwest;fontSize=12;" parent="0PpJ5zKY2ymD8HXdoyNr-19" vertex="1">
          <mxGeometry y="66" width="200" height="34" as="geometry" />
        </mxCell>
        <mxCell id="0PpJ5zKY2ymD8HXdoyNr-27" value="&lt;b&gt;CC:&lt;/b&gt;" style="shape=partialRectangle;html=1;whiteSpace=wrap;connectable=0;strokeColor=#6c8ebf;overflow=hidden;fillColor=#dae8fc;top=0;left=0;bottom=0;right=0;pointerEvents=1;fontSize=12;align=left;spacingLeft=10;spacingRight=4;" parent="0PpJ5zKY2ymD8HXdoyNr-26" vertex="1">
          <mxGeometry width="200" height="34" as="geometry">
            <mxRectangle width="200" height="34" as="alternateBounds" />
          </mxGeometry>
        </mxCell>
        <mxCell id="0PpJ5zKY2ymD8HXdoyNr-22" value="" style="shape=tableRow;horizontal=0;startSize=0;swimlaneHead=0;swimlaneBody=0;strokeColor=inherit;top=0;left=0;bottom=0;right=0;collapsible=0;dropTarget=0;fillColor=none;points=[[0,0.5],[1,0.5]];portConstraint=eastwest;fontSize=12;" parent="0PpJ5zKY2ymD8HXdoyNr-19" vertex="1">
          <mxGeometry y="100" width="200" height="90" as="geometry" />
        </mxCell>
        <mxCell id="0PpJ5zKY2ymD8HXdoyNr-23" value="-watch_list&lt;br&gt;-view&lt;br&gt;-statistic&lt;br&gt;-flamegraph" style="shape=partialRectangle;html=1;whiteSpace=wrap;connectable=0;strokeColor=#6c8ebf;overflow=hidden;fillColor=#dae8fc;top=0;left=0;bottom=0;right=0;pointerEvents=1;fontSize=12;align=left;spacingLeft=10;spacingRight=4;" parent="0PpJ5zKY2ymD8HXdoyNr-22" vertex="1">
          <mxGeometry width="200" height="90" as="geometry">
            <mxRectangle width="200" height="90" as="alternateBounds" />
          </mxGeometry>
        </mxCell>
        <mxCell id="0PpJ5zKY2ymD8HXdoyNr-24" value="" style="shape=tableRow;horizontal=0;startSize=0;swimlaneHead=0;swimlaneBody=0;strokeColor=inherit;top=0;left=0;bottom=0;right=0;collapsible=0;dropTarget=0;fillColor=none;points=[[0,0.5],[1,0.5]];portConstraint=eastwest;fontSize=12;" parent="0PpJ5zKY2ymD8HXdoyNr-19" vertex="1">
          <mxGeometry y="190" width="200" height="36" as="geometry" />
        </mxCell>
        <mxCell id="0PpJ5zKY2ymD8HXdoyNr-25" value="&lt;b&gt;RRD Analytic:&lt;/b&gt;" style="shape=partialRectangle;html=1;whiteSpace=wrap;connectable=0;strokeColor=#d6b656;overflow=hidden;fillColor=#fff2cc;top=0;left=0;bottom=0;right=0;pointerEvents=1;fontSize=12;align=left;spacingLeft=10;spacingRight=4;" parent="0PpJ5zKY2ymD8HXdoyNr-24" vertex="1">
          <mxGeometry width="200" height="36" as="geometry">
            <mxRectangle width="200" height="36" as="alternateBounds" />
          </mxGeometry>
        </mxCell>
        <mxCell id="0PpJ5zKY2ymD8HXdoyNr-37" value="" style="shape=tableRow;horizontal=0;startSize=0;swimlaneHead=0;swimlaneBody=0;strokeColor=inherit;top=0;left=0;bottom=0;right=0;collapsible=0;dropTarget=0;fillColor=none;points=[[0,0.5],[1,0.5]];portConstraint=eastwest;fontSize=12;" parent="0PpJ5zKY2ymD8HXdoyNr-19" vertex="1">
          <mxGeometry y="226" width="200" height="100" as="geometry" />
        </mxCell>
        <mxCell id="0PpJ5zKY2ymD8HXdoyNr-38" value="-analytic&lt;br&gt;-rrd&lt;br&gt;-rrd_select&lt;br&gt;-rrd_collect&lt;br&gt;-rrd_view&lt;br&gt;-rrd_plot_view" style="shape=partialRectangle;html=1;whiteSpace=wrap;connectable=0;strokeColor=#d6b656;overflow=hidden;fillColor=#fff2cc;top=0;left=0;bottom=0;right=0;pointerEvents=1;fontSize=12;align=left;spacingLeft=10;spacingRight=4;" parent="0PpJ5zKY2ymD8HXdoyNr-37" vertex="1">
          <mxGeometry width="200" height="100" as="geometry">
            <mxRectangle width="200" height="100" as="alternateBounds" />
          </mxGeometry>
        </mxCell>
        <object placeholders="1" c4Type="Relationship" id="0PpJ5zKY2ymD8HXdoyNr-41">
          <mxCell style="endArrow=blockThin;html=1;fontSize=10;fontColor=#404040;strokeWidth=6;endFill=1;strokeColor=#333333;elbow=vertical;metaEdit=1;endSize=14;startSize=14;jumpStyle=arc;jumpSize=16;rounded=0;edgeStyle=orthogonalEdgeStyle;exitX=0;exitY=0.5;exitDx=0;exitDy=0;exitPerimeter=0;entryX=1;entryY=0.5;entryDx=0;entryDy=0;" parent="1" source="0PpJ5zKY2ymD8HXdoyNr-3" target="0PpJ5zKY2ymD8HXdoyNr-24" edge="1">
            <mxGeometry width="240" relative="1" as="geometry">
              <mxPoint x="-30" y="420" as="sourcePoint" />
              <mxPoint x="210" y="420" as="targetPoint" />
              <Array as="points">
                <mxPoint x="250" y="338" />
                <mxPoint x="160" y="338" />
                <mxPoint x="160" y="270" />
              </Array>
            </mxGeometry>
          </mxCell>
        </object>
        <mxCell id="0PpJ5zKY2ymD8HXdoyNr-42" value="Export API" style="edgeLabel;html=1;align=center;verticalAlign=middle;resizable=0;points=[];fontSize=15;labelBackgroundColor=none;fontStyle=1" parent="0PpJ5zKY2ymD8HXdoyNr-41" vertex="1" connectable="0">
          <mxGeometry x="-0.2222" y="-3" relative="1" as="geometry">
            <mxPoint x="29" y="-17" as="offset" />
          </mxGeometry>
        </mxCell>
        <object placeholders="1" c4Type="Relationship" c4Technology="statistic, view, watch_list" c4Description="Consume CC API" label="&lt;div style=&quot;text-align: left; font-size: 13px;&quot;&gt;&lt;div style=&quot;text-align: center; font-size: 13px;&quot;&gt;&lt;b style=&quot;font-size: 13px;&quot;&gt;%c4Description%&lt;/b&gt;&lt;/div&gt;&lt;div style=&quot;text-align: center; font-size: 13px;&quot;&gt;[%c4Technology%]&lt;/div&gt;&lt;/div&gt;" id="0PpJ5zKY2ymD8HXdoyNr-40">
          <mxCell style="endArrow=blockThin;html=1;fontSize=13;fontColor=#0000CC;strokeWidth=3;endFill=1;strokeColor=#0000CC;elbow=vertical;metaEdit=1;endSize=14;startSize=14;jumpStyle=arc;jumpSize=16;rounded=0;edgeStyle=orthogonalEdgeStyle;exitX=1;exitY=0.5;exitDx=0;exitDy=0;entryX=0.471;entryY=0.008;entryDx=0;entryDy=0;entryPerimeter=0;labelBackgroundColor=none;" parent="1" source="0PpJ5zKY2ymD8HXdoyNr-22" target="0PpJ5zKY2ymD8HXdoyNr-3" edge="1">
            <mxGeometry x="0.7857" y="20" width="240" relative="1" as="geometry">
              <mxPoint x="-30" y="420" as="sourcePoint" />
              <mxPoint x="210" y="420" as="targetPoint" />
              <Array as="points">
                <mxPoint x="160" y="207" />
                <mxPoint x="160" y="250" />
                <mxPoint x="363" y="250" />
              </Array>
              <mxPoint as="offset" />
            </mxGeometry>
          </mxCell>
        </object>
        <object placeholders="1" c4Type="Export API" id="0PpJ5zKY2ymD8HXdoyNr-45">
          <mxCell style="endArrow=blockThin;html=1;fontSize=10;fontColor=#404040;strokeWidth=6;endFill=1;strokeColor=#4D4D4D;elbow=vertical;metaEdit=1;endSize=14;startSize=14;jumpStyle=arc;jumpSize=16;rounded=0;edgeStyle=orthogonalEdgeStyle;exitX=0;exitY=0.5;exitDx=0;exitDy=0;exitPerimeter=0;entryX=1;entryY=0.5;entryDx=0;entryDy=0;" parent="1" source="0PpJ5zKY2ymD8HXdoyNr-2" target="0PpJ5zKY2ymD8HXdoyNr-26" edge="1">
            <mxGeometry width="240" relative="1" as="geometry">
              <mxPoint x="-30" y="420" as="sourcePoint" />
              <mxPoint x="210" y="420" as="targetPoint" />
              <Array as="points">
                <mxPoint x="160" y="90" />
                <mxPoint x="160" y="145" />
              </Array>
            </mxGeometry>
          </mxCell>
        </object>
        <mxCell id="0PpJ5zKY2ymD8HXdoyNr-46" value="Export API" style="edgeLabel;html=1;align=center;verticalAlign=middle;resizable=0;points=[];fontSize=15;labelBackgroundColor=none;fontStyle=1" parent="0PpJ5zKY2ymD8HXdoyNr-45" vertex="1" connectable="0">
          <mxGeometry x="-0.1231" y="-4" relative="1" as="geometry">
            <mxPoint x="21" y="-16" as="offset" />
          </mxGeometry>
        </mxCell>
        <mxCell id="0PpJ5zKY2ymD8HXdoyNr-48" value="PROJECT_PATH:" style="shape=table;startSize=30;container=1;collapsible=0;childLayout=tableLayout;fontSize=16;align=left;verticalAlign=top;fontStyle=1;spacingLeft=6;spacing=0;resizable=0;strokeWidth=3;" parent="1" vertex="1">
          <mxGeometry x="-80" y="-66" width="200" height="66" as="geometry" />
        </mxCell>
        <mxCell id="0PpJ5zKY2ymD8HXdoyNr-49" value="" style="shape=tableRow;horizontal=0;startSize=0;swimlaneHead=0;swimlaneBody=0;strokeColor=inherit;top=0;left=0;bottom=0;right=0;collapsible=0;dropTarget=0;fillColor=none;points=[[0,0.5],[1,0.5]];portConstraint=eastwest;fontSize=12;" parent="0PpJ5zKY2ymD8HXdoyNr-48" vertex="1">
          <mxGeometry y="30" width="200" height="36" as="geometry" />
        </mxCell>
        <mxCell id="0PpJ5zKY2ymD8HXdoyNr-50" value="&amp;lt;project to analysis &amp;gt;" style="shape=partialRectangle;html=1;whiteSpace=wrap;connectable=0;overflow=hidden;top=0;left=0;bottom=0;right=0;pointerEvents=1;fontSize=12;align=left;spacingLeft=10;spacingRight=4;" parent="0PpJ5zKY2ymD8HXdoyNr-49" vertex="1">
          <mxGeometry width="200" height="36" as="geometry">
            <mxRectangle width="200" height="36" as="alternateBounds" />
          </mxGeometry>
        </mxCell>
        <object placeholders="1" c4Type="Relationship" c4Description="Import ENV variable" label="&lt;div style=&quot;text-align: left; font-size: 15px;&quot;&gt;&lt;div style=&quot;text-align: center; font-size: 15px;&quot;&gt;&lt;b style=&quot;font-size: 15px;&quot;&gt;%c4Description%&lt;/b&gt;&lt;/div&gt;&lt;/div&gt;" id="0PpJ5zKY2ymD8HXdoyNr-59">
          <mxCell style="endArrow=blockThin;html=1;fontSize=15;fontColor=#CC0000;strokeWidth=4;endFill=1;strokeColor=#b85450;elbow=vertical;metaEdit=1;endSize=14;startSize=14;jumpStyle=arc;jumpSize=16;rounded=1;edgeStyle=orthogonalEdgeStyle;exitX=1;exitY=0.25;exitDx=0;exitDy=0;entryX=0.5;entryY=0;entryDx=0;entryDy=0;entryPerimeter=0;fillColor=#f8cecc;labelBackgroundColor=none;dashed=1;dashPattern=1 1;" parent="1" source="0PpJ5zKY2ymD8HXdoyNr-48" target="0PpJ5zKY2ymD8HXdoyNr-2" edge="1">
            <mxGeometry x="0.4564" y="20" width="240" relative="1" as="geometry">
              <mxPoint x="-50" y="60" as="sourcePoint" />
              <mxPoint x="190" y="60" as="targetPoint" />
              <mxPoint as="offset" />
            </mxGeometry>
          </mxCell>
        </object>
        <object placeholders="1" c4Type="Relationship" c4Description="Import API" label="&lt;div style=&quot;text-align: left; font-size: 15px;&quot;&gt;&lt;div style=&quot;text-align: center; font-size: 15px;&quot;&gt;&lt;b style=&quot;font-size: 15px;&quot;&gt;%c4Description%&lt;/b&gt;&lt;/div&gt;&lt;/div&gt;" id="0PpJ5zKY2ymD8HXdoyNr-60">
          <mxCell style="endArrow=blockThin;html=1;fontSize=15;fontColor=#CC0000;strokeWidth=4;endFill=1;strokeColor=#b85450;elbow=vertical;metaEdit=1;endSize=14;startSize=14;jumpStyle=arc;jumpSize=16;rounded=1;edgeStyle=orthogonalEdgeStyle;exitX=1;exitY=0.5;exitDx=0;exitDy=0;fillColor=#f8cecc;entryX=0.625;entryY=0.031;entryDx=0;entryDy=0;entryPerimeter=0;dashed=1;dashPattern=1 1;labelBackgroundColor=none;" parent="1" source="0PpJ5zKY2ymD8HXdoyNr-22" target="0PpJ5zKY2ymD8HXdoyNr-4" edge="1">
            <mxGeometry x="-0.854" y="20" width="240" relative="1" as="geometry">
              <mxPoint x="130" y="-39" as="sourcePoint" />
              <mxPoint x="80" y="510" as="targetPoint" />
              <Array as="points">
                <mxPoint x="120" y="200" />
                <mxPoint x="560" y="200" />
                <mxPoint x="560" y="470" />
                <mxPoint x="420" y="470" />
              </Array>
              <mxPoint as="offset" />
            </mxGeometry>
          </mxCell>
        </object>
        <object placeholders="1" c4Type="Relationship" c4Description="Import API" label="&lt;div style=&quot;text-align: left; font-size: 15px;&quot;&gt;&lt;div style=&quot;text-align: center; font-size: 15px;&quot;&gt;&lt;b style=&quot;font-size: 15px;&quot;&gt;%c4Description%&lt;/b&gt;&lt;/div&gt;&lt;/div&gt;" id="0PpJ5zKY2ymD8HXdoyNr-61">
          <mxCell style="endArrow=blockThin;html=1;fontSize=15;fontColor=#CC0000;strokeWidth=4;endFill=1;strokeColor=#b85450;elbow=vertical;metaEdit=1;endSize=14;startSize=14;jumpStyle=arc;jumpSize=16;rounded=1;edgeStyle=orthogonalEdgeStyle;exitX=1;exitY=0.5;exitDx=0;exitDy=0;entryX=0.5;entryY=0;entryDx=0;entryDy=0;entryPerimeter=0;fillColor=#f8cecc;dashed=1;dashPattern=1 1;labelBackgroundColor=none;" parent="1" source="0PpJ5zKY2ymD8HXdoyNr-37" target="0PpJ5zKY2ymD8HXdoyNr-4" edge="1">
            <mxGeometry x="-0.1598" y="20" width="240" relative="1" as="geometry">
              <mxPoint x="130" y="155" as="sourcePoint" />
              <mxPoint x="40" y="535" as="targetPoint" />
              <Array as="points">
                <mxPoint x="130" y="338" />
                <mxPoint x="130" y="470" />
                <mxPoint x="390" y="470" />
              </Array>
              <mxPoint as="offset" />
            </mxGeometry>
          </mxCell>
        </object>
        <object placeholders="1" c4Type="Relationship" c4Technology="statistic,&#xa;view,&#xa;watch_list,&#xa;flamegraph" c4Description="Consume API" label="&lt;div style=&quot;text-align: left; font-size: 13px;&quot;&gt;&lt;div style=&quot;text-align: center; font-size: 13px;&quot;&gt;&lt;b style=&quot;font-size: 13px;&quot;&gt;%c4Description%&lt;/b&gt;&lt;/div&gt;&lt;div style=&quot;text-align: center; font-size: 13px;&quot;&gt;[%c4Technology%]&lt;/div&gt;&lt;/div&gt;" id="0PpJ5zKY2ymD8HXdoyNr-62">
          <mxCell style="endArrow=blockThin;html=1;fontSize=13;fontColor=#0000CC;strokeWidth=3;endFill=1;strokeColor=#0000CC;elbow=vertical;metaEdit=1;endSize=14;startSize=14;jumpStyle=arc;jumpSize=16;rounded=0;edgeStyle=orthogonalEdgeStyle;entryX=0;entryY=0.5;entryDx=0;entryDy=0;exitX=1;exitY=0.75;exitDx=0;exitDy=0;exitPerimeter=0;labelBackgroundColor=none;" parent="1" edge="1">
            <mxGeometry x="0.1181" y="50" width="240" relative="1" as="geometry">
              <mxPoint x="-320" y="409" as="sourcePoint" />
              <mxPoint x="-80" y="139" as="targetPoint" />
              <Array as="points">
                <mxPoint x="-320" y="424" />
                <mxPoint x="-270" y="424" />
                <mxPoint x="-270" y="139" />
              </Array>
              <mxPoint as="offset" />
            </mxGeometry>
          </mxCell>
        </object>
        <object placeholders="1" c4Type="Relationship" c4Technology="analytic,&#xa;rrd,&#xa;rrd_select,&#xa;rrd_collect,&#xa;rrd_view,&#xa;rrd_plot_view" c4Description="Consume API" label="&lt;div style=&quot;text-align: left; font-size: 13px;&quot;&gt;&lt;div style=&quot;text-align: center; font-size: 13px;&quot;&gt;&lt;b style=&quot;font-size: 13px;&quot;&gt;%c4Description%&lt;/b&gt;&lt;/div&gt;&lt;div style=&quot;text-align: center; font-size: 13px;&quot;&gt;[%c4Technology%]&lt;/div&gt;&lt;/div&gt;" id="0PpJ5zKY2ymD8HXdoyNr-63">
          <mxCell style="endArrow=blockThin;html=1;fontSize=13;fontColor=#0000CC;strokeWidth=3;endFill=1;strokeColor=#0000CC;elbow=vertical;metaEdit=1;endSize=14;startSize=14;jumpStyle=arc;jumpSize=16;rounded=0;edgeStyle=orthogonalEdgeStyle;entryX=0;entryY=0.5;entryDx=0;entryDy=0;exitX=1;exitY=0.75;exitDx=0;exitDy=0;exitPerimeter=0;labelBackgroundColor=none;" parent="1" source="0PpJ5zKY2ymD8HXdoyNr-5" target="0PpJ5zKY2ymD8HXdoyNr-24" edge="1">
            <mxGeometry x="0.4572" y="50" width="240" relative="1" as="geometry">
              <mxPoint x="-310" y="425" as="sourcePoint" />
              <mxPoint x="-70" y="155" as="targetPoint" />
              <Array as="points">
                <mxPoint x="-320" y="425" />
                <mxPoint x="-140" y="425" />
                <mxPoint x="-140" y="270" />
              </Array>
              <mxPoint as="offset" />
            </mxGeometry>
          </mxCell>
        </object>
        <object placeholders="1" c4Type="Relationship" c4Technology="statistic,&#xa;view,&#xa;watch_list,&#xa;flamegraph&#xa;analytic,&#xa;rrd,&#xa;rrd_select,&#xa;rrd_collect,&#xa;rrd_view,&#xa;rrd_plot_view" c4Description="Consume REST API" label="&lt;div style=&quot;text-align: left; font-size: 13px;&quot;&gt;&lt;div style=&quot;text-align: center; font-size: 13px;&quot;&gt;&lt;b style=&quot;font-size: 13px;&quot;&gt;%c4Description%&lt;/b&gt;&lt;/div&gt;&lt;div style=&quot;text-align: center; font-size: 13px;&quot;&gt;[%c4Technology%]&lt;/div&gt;&lt;/div&gt;" id="0PpJ5zKY2ymD8HXdoyNr-64">
          <mxCell style="endArrow=blockThin;html=1;fontSize=13;fontColor=#0000CC;strokeWidth=3;endFill=1;strokeColor=#0000CC;elbow=vertical;metaEdit=1;endSize=14;startSize=14;jumpStyle=arc;jumpSize=16;rounded=0;edgeStyle=orthogonalEdgeStyle;exitX=1;exitY=0.75;exitDx=0;exitDy=0;exitPerimeter=0;entryX=0.06;entryY=0.5;entryDx=0;entryDy=0;entryPerimeter=0;labelBackgroundColor=none;" parent="1" target="JEX36WftkP2Sz6JWhwrl-1" edge="1">
            <mxGeometry x="0.4011" y="-70" width="240" relative="1" as="geometry">
              <mxPoint x="-310" y="425" as="sourcePoint" />
              <mxPoint x="-180" y="590" as="targetPoint" />
              <Array as="points">
                <mxPoint x="-140" y="425" />
                <mxPoint x="-140" y="605" />
              </Array>
              <mxPoint as="offset" />
            </mxGeometry>
          </mxCell>
        </object>
        <object placeholders="1" c4Name="Admin" c4Type="Person" c4Description="Commence initial setup" label="&lt;font style=&quot;font-size: 16px&quot;&gt;&lt;b&gt;%c4Name%&lt;/b&gt;&lt;/font&gt;&lt;div&gt;[%c4Type%]&lt;/div&gt;&lt;br&gt;&lt;div&gt;&lt;font style=&quot;font-size: 11px&quot;&gt;&lt;font color=&quot;#cccccc&quot;&gt;%c4Description%&lt;/font&gt;&lt;/div&gt;" id="0PpJ5zKY2ymD8HXdoyNr-65">
          <mxCell style="html=1;fontSize=11;dashed=0;whiteSpace=wrap;fillColor=#083F75;strokeColor=#06315C;fontColor=#ffffff;shape=mxgraph.c4.person2;align=center;metaEdit=1;points=[[0.5,0,0],[1,0.5,0],[1,0.75,0],[0.75,1,0],[0.5,1,0],[0.25,1,0],[0,0.75,0],[0,0.5,0]];resizable=0;" parent="1" vertex="1">
            <mxGeometry x="-520" y="-155" width="200" height="180" as="geometry" />
          </mxCell>
        </object>
        <mxCell id="JEX36WftkP2Sz6JWhwrl-1" value="&lt;font color=&quot;#000000&quot; style=&quot;font-size: 19px;&quot;&gt;WEB&lt;/font&gt;" style="html=1;outlineConnect=0;fillColor=#CCCCCC;strokeColor=#6881B3;gradientColor=none;gradientDirection=north;strokeWidth=2;shape=mxgraph.networks.cloud;fontColor=#ffffff;fontSize=19;" vertex="1" parent="1">
          <mxGeometry x="-70" y="570" width="160" height="70" as="geometry" />
        </mxCell>
        <object placeholders="1" c4Type="Relationship" id="JEX36WftkP2Sz6JWhwrl-3">
          <mxCell style="endArrow=blockThin;html=1;fontSize=10;fontColor=#404040;strokeWidth=3;endFill=1;strokeColor=#00CC00;elbow=vertical;metaEdit=1;endSize=14;startSize=14;jumpStyle=arc;jumpSize=16;rounded=0;edgeStyle=orthogonalEdgeStyle;exitX=1;exitY=0.75;exitDx=0;exitDy=0;exitPerimeter=0;entryX=0;entryY=0.25;entryDx=0;entryDy=0;" edge="1" parent="1" source="0PpJ5zKY2ymD8HXdoyNr-65" target="0PpJ5zKY2ymD8HXdoyNr-48">
            <mxGeometry width="240" relative="1" as="geometry">
              <mxPoint x="-30" y="320" as="sourcePoint" />
              <mxPoint x="210" y="320" as="targetPoint" />
            </mxGeometry>
          </mxCell>
        </object>
        <mxCell id="JEX36WftkP2Sz6JWhwrl-32" value="SET" style="edgeLabel;html=1;align=center;verticalAlign=middle;resizable=0;points=[];fontColor=#006600;fontSize=15;labelBackgroundColor=none;" vertex="1" connectable="0" parent="JEX36WftkP2Sz6JWhwrl-3">
          <mxGeometry x="0.4508" y="-4" relative="1" as="geometry">
            <mxPoint x="5" y="-19" as="offset" />
          </mxGeometry>
        </mxCell>
        <object placeholders="1" c4Type="Relationship" id="JEX36WftkP2Sz6JWhwrl-4">
          <mxCell style="endArrow=blockThin;html=1;fontSize=10;fontColor=#404040;strokeWidth=3;endFill=1;strokeColor=#00CC00;elbow=vertical;metaEdit=1;endSize=14;startSize=14;jumpStyle=arc;jumpSize=16;rounded=0;edgeStyle=orthogonalEdgeStyle;exitX=1;exitY=0.75;exitDx=0;exitDy=0;exitPerimeter=0;entryX=-0.005;entryY=0.058;entryDx=0;entryDy=0;entryPerimeter=0;" edge="1" parent="1" source="0PpJ5zKY2ymD8HXdoyNr-65" target="0PpJ5zKY2ymD8HXdoyNr-19">
            <mxGeometry width="240" relative="1" as="geometry">
              <mxPoint x="-310" y="-10" as="sourcePoint" />
              <mxPoint x="-70" y="-39" as="targetPoint" />
              <Array as="points">
                <mxPoint x="-200" y="-20" />
                <mxPoint x="-200" y="81" />
              </Array>
            </mxGeometry>
          </mxCell>
        </object>
        <mxCell id="JEX36WftkP2Sz6JWhwrl-33" value="CREATE" style="edgeLabel;html=1;align=center;verticalAlign=middle;resizable=0;points=[];fontColor=#006600;fontSize=15;labelBackgroundColor=none;" vertex="1" connectable="0" parent="JEX36WftkP2Sz6JWhwrl-4">
          <mxGeometry x="0.7411" y="1" relative="1" as="geometry">
            <mxPoint x="-25" y="-10" as="offset" />
          </mxGeometry>
        </mxCell>
        <object placeholders="1" c4Type="Relationship" id="JEX36WftkP2Sz6JWhwrl-5">
          <mxCell style="endArrow=blockThin;html=1;fontSize=10;fontColor=#404040;strokeWidth=6;endFill=1;strokeColor=#333333;elbow=vertical;metaEdit=1;endSize=14;startSize=14;jumpStyle=arc;jumpSize=16;rounded=0;edgeStyle=orthogonalEdgeStyle;exitX=-0.012;exitY=0.544;exitDx=0;exitDy=0;exitPerimeter=0;entryX=0.91;entryY=0.5;entryDx=0;entryDy=0;entryPerimeter=0;" edge="1" parent="1" source="0PpJ5zKY2ymD8HXdoyNr-4" target="JEX36WftkP2Sz6JWhwrl-1">
            <mxGeometry width="240" relative="1" as="geometry">
              <mxPoint x="328.1" y="605" as="sourcePoint" />
              <mxPoint x="90.00000000000009" y="605" as="targetPoint" />
              <Array as="points">
                <mxPoint x="267" y="605" />
              </Array>
            </mxGeometry>
          </mxCell>
        </object>
        <mxCell id="JEX36WftkP2Sz6JWhwrl-6" value="Export API" style="edgeLabel;html=1;align=center;verticalAlign=middle;resizable=0;points=[];fontStyle=1;fontSize=15;" vertex="1" connectable="0" parent="JEX36WftkP2Sz6JWhwrl-5">
          <mxGeometry x="-0.2222" y="-3" relative="1" as="geometry">
            <mxPoint x="-7" y="-17" as="offset" />
          </mxGeometry>
        </mxCell>
        <mxCell id="JEX36WftkP2Sz6JWhwrl-34" value="Analysis UC v.0.1&lt;br&gt;- initial diagram" style="text;html=1;strokeColor=none;fillColor=none;align=left;verticalAlign=middle;whiteSpace=wrap;rounded=0;" vertex="1" parent="1">
          <mxGeometry x="630" y="-200" width="120" height="30" as="geometry" />
        </mxCell>
      </root>
    </mxGraphModel>
  </diagram>
</mxfile>
